<svg width="512" height="512" xmlns="http://www.w3.org/2000/svg">

 <g>
  <title>background</title>
  <rect fill="none" id="canvas_background" height="402" width="582" y="-1" x="-1"/>
 </g>
 <g>
  <title>Layer 1</title>
  <path id="svg_2" fill="#ffffff" d="m396.113061,149.705l0,-135.342l-71.052,0l0,64.438l-67.888,-67.869l0,-0.286l-1.264,-1.227l-0.12,0.139l-0.12,-0.139l-1.302,1.227l0,0.286l-251.572,251.186l33.072,33.13l31.486,-30.25l0,135.82l376.845,0l0,-135.82l31.47,30.25l33.044,-33.13l-112.599,-112.413zm-140.369,145.396c-33.302,0 -60.27,-26.986 -60.27,-60.252c0,-33.312 26.968,-60.271 60.27,-60.271c33.285,0 60.26,26.958 60.26,60.271c0,33.265 -26.976,60.252 -60.26,60.252z"/>
  <rect id="svg_3" y="465.838636" x="171.080182" width="172.518" height="31.727" fill="#ffffff"/>
 </g>
</svg>